<?xml version="1.0" encoding="UTF-8" standalone="no"?>
<svg
   xmlns:dc="http://purl.org/dc/elements/1.1/"
   xmlns:cc="http://creativecommons.org/ns#"
   xmlns:rdf="http://www.w3.org/1999/02/22-rdf-syntax-ns#"
   xmlns:svg="http://www.w3.org/2000/svg"
   xmlns="http://www.w3.org/2000/svg"
   style="enable-background:new"
   version="1.1"
   height="20"
   width="100"
   id="svg4306">
  <metadata
     id="metadata40">
    <rdf:RDF>
      <cc:Work
         rdf:about="">
        <dc:format>image/svg+xml</dc:format>
        <dc:type
           rdf:resource="http://purl.org/dc/dcmitype/StillImage" />
        <dc:title></dc:title>
        <dc:date>2018</dc:date>
        <dc:creator>
          <cc:Agent>
            <dc:title>Rokin</dc:title>
          </cc:Agent>
        </dc:creator>
        <dc:source>https://github.com/Rokin05</dc:source>
      </cc:Work>
    </rdf:RDF>
  </metadata>
  <defs
     id="defs38" />
  <g
     id="active-center"
     transform="matrix(1,0,0,-1,-0.85916916,20.081684)"
     style="enable-background:new">
    <path
       style="fill:none;fill-opacity:1;fill-rule:evenodd;stroke:none;stroke-width:1.14295816"
       d="m 11.389237,17.991374 c 4.418965,0 8.001308,-3.581731 8.001308,-8.0000358 0,-4.4183059 -3.582343,-8.0000364 -8.001308,-8.0000364 -4.419096,0 -8.001449,3.5817305 -8.001449,8.0000364 0,4.4183048 3.582353,8.0000358 8.001449,8.0000358"
       id="path2-67-67" />
    <path
       style="fill:none;fill-opacity:1;fill-rule:evenodd;stroke:none;stroke-width:1.15386689"
       d="m 11.389241,17.491372 c 4.142502,0 7.500732,-3.357844 7.500732,-7.4995766 0,-4.1418476 -3.35823,-7.4994627 -7.500732,-7.4994627 -4.14265,0 -7.500882,3.3576151 -7.500882,7.4994627 0,4.1417326 3.358232,7.4995766 7.500882,7.4995766"
       id="path4-5-5" />
    <path
       style="opacity:1;fill:#cccccc;fill-opacity:1;fill-rule:evenodd;stroke:none;stroke-width:5.76674747;stroke-linecap:butt;stroke-linejoin:round;stroke-miterlimit:4;stroke-dasharray:none;stroke-opacity:1;enable-background:new"
       d="m 11.5,7.0176889 -2.4999987,3.0000011 -2.5,3.000002 H 11.5 h 5 L 14,10.01769 Z"
       id="path4167" />
  </g>
  <g
     style="enable-background:new"
     id="hover-center"
     transform="matrix(1,0,0,-1,17.610328,20.081684)">
    <path
       style="fill:none;fill-opacity:1;fill-rule:evenodd;stroke:none;stroke-width:1.14295816"
       d="m 11.389237,17.991374 c 4.418965,0 8.001308,-3.581731 8.001308,-8.0000358 0,-4.4183059 -3.582343,-8.0000364 -8.001308,-8.0000364 -4.419096,0 -8.001449,3.5817305 -8.001449,8.0000364 0,4.4183048 3.582353,8.0000358 8.001449,8.0000358"
       id="path2-67-67-2" />
    <path
       style="fill:none;fill-opacity:1;fill-rule:evenodd;stroke:none;stroke-width:1.15386689"
       d="m 11.389241,17.491372 c 4.142502,0 7.500732,-3.357844 7.500732,-7.4995766 0,-4.1418476 -3.35823,-7.4994627 -7.500732,-7.4994627 -4.14265,0 -7.500882,3.3576151 -7.500882,7.4994627 0,4.1417326 3.358232,7.4995766 7.500882,7.4995766"
       id="path4-5-5-9" />
    <path
       style="opacity:1;fill:#e6e6e6;fill-opacity:1;fill-rule:evenodd;stroke:none;stroke-width:5.76674747;stroke-linecap:butt;stroke-linejoin:round;stroke-miterlimit:4;stroke-dasharray:none;stroke-opacity:1;enable-background:new"
       d="m 11.5,7.0176889 -2.4999987,3.0000011 -2.5,3.000002 H 11.5 h 5 L 14,10.01769 Z"
       id="path4167-1" />
  </g>
  <g
     style="enable-background:new"
     id="pressed-center"
     transform="matrix(1,0,0,-1,37.629572,20.073056)">
    <path
       style="fill:none;fill-opacity:1;fill-rule:evenodd;stroke:none;stroke-width:1.14295816"
       d="m 11.389237,17.991374 c 4.418965,0 8.001308,-3.581731 8.001308,-8.0000358 0,-4.4183059 -3.582343,-8.0000364 -8.001308,-8.0000364 -4.419096,0 -8.001449,3.5817305 -8.001449,8.0000364 0,4.4183048 3.582353,8.0000358 8.001449,8.0000358"
       id="path2-67-67-7" />
    <path
       style="fill:none;fill-opacity:1;fill-rule:evenodd;stroke:none;stroke-width:1.15386689"
       d="m 11.389241,17.491372 c 4.142502,0 7.500732,-3.357844 7.500732,-7.4995766 0,-4.1418476 -3.35823,-7.4994627 -7.500732,-7.4994627 -4.14265,0 -7.500882,3.3576151 -7.500882,7.4994627 0,4.1417326 3.358232,7.4995766 7.500882,7.4995766"
       id="path4-5-5-0" />
    <path
       style="opacity:1;fill:#e6e6e6;fill-opacity:1;fill-rule:evenodd;stroke:none;stroke-width:5.76674747;stroke-linecap:butt;stroke-linejoin:round;stroke-miterlimit:4;stroke-dasharray:none;stroke-opacity:1;enable-background:new"
       d="m 11.5,7.0176889 -2.4999987,3.0000011 -2.5,3.000002 H 11.5 h 5 L 14,10.01769 Z"
       id="path4167-9" />
  </g>
  <g
     style="opacity:0.5;enable-background:new"
     id="inactive-center"
     transform="matrix(1,0,0,-1,57.629572,20.073056)">
    <path
       style="fill:none;fill-opacity:1;fill-rule:evenodd;stroke:none;stroke-width:1.14295816"
       d="m 11.389237,17.991374 c 4.418965,0 8.001308,-3.581731 8.001308,-8.0000358 0,-4.4183059 -3.582343,-8.0000364 -8.001308,-8.0000364 -4.419096,0 -8.001449,3.5817305 -8.001449,8.0000364 0,4.4183048 3.582353,8.0000358 8.001449,8.0000358"
       id="path2-67-67-6" />
    <path
       style="fill:none;fill-opacity:1;fill-rule:evenodd;stroke:none;stroke-width:1.15386689"
       d="m 11.389241,17.491372 c 4.142502,0 7.500732,-3.357844 7.500732,-7.4995766 0,-4.1418476 -3.35823,-7.4994627 -7.500732,-7.4994627 -4.14265,0 -7.500882,3.3576151 -7.500882,7.4994627 0,4.1417326 3.358232,7.4995766 7.500882,7.4995766"
       id="path4-5-5-06" />
    <path
       style="opacity:1;fill:#cccccc;fill-opacity:1;fill-rule:evenodd;stroke:none;stroke-width:5.76674747;stroke-linecap:butt;stroke-linejoin:round;stroke-miterlimit:4;stroke-dasharray:none;stroke-opacity:1;enable-background:new"
       d="m 11.5,7.0176889 -2.4999987,3.0000011 -2.5,3.000002 H 11.5 h 5 L 14,10.01769 Z"
       id="path4167-2" />
  </g>
  <g
     style="opacity:0.2;enable-background:new"
     id="deactivated-center"
     transform="matrix(1,0,0,-1,77.649769,20.056232)">
    <path
       style="fill:none;fill-opacity:1;fill-rule:evenodd;stroke:none;stroke-width:1.14295816"
       d="m 11.389237,17.991374 c 4.418965,0 8.001308,-3.581731 8.001308,-8.0000358 0,-4.4183059 -3.582343,-8.0000364 -8.001308,-8.0000364 -4.419096,0 -8.001449,3.5817305 -8.001449,8.0000364 0,4.4183048 3.582353,8.0000358 8.001449,8.0000358"
       id="path2-67-67-1" />
    <path
       style="fill:none;fill-opacity:1;fill-rule:evenodd;stroke:none;stroke-width:1.15386689"
       d="m 11.389241,17.491372 c 4.142502,0 7.500732,-3.357844 7.500732,-7.4995766 0,-4.1418476 -3.35823,-7.4994627 -7.500732,-7.4994627 -4.14265,0 -7.500882,3.3576151 -7.500882,7.4994627 0,4.1417326 3.358232,7.4995766 7.500882,7.4995766"
       id="path4-5-5-8" />
    <path
       style="opacity:1;fill:#cccccc;fill-opacity:1;fill-rule:evenodd;stroke:none;stroke-width:5.76674747;stroke-linecap:butt;stroke-linejoin:round;stroke-miterlimit:4;stroke-dasharray:none;stroke-opacity:1;enable-background:new"
       d="m 11.5,7.0176889 -2.4999987,3.0000011 -2.5,3.000002 H 11.5 h 5 L 14,10.01769 Z"
       id="path4167-7" />
  </g>
</svg>
