<?xml version="1.0" encoding="UTF-8" standalone="no"?>
<svg
   xmlns:dc="http://purl.org/dc/elements/1.1/"
   xmlns:cc="http://creativecommons.org/ns#"
   xmlns:rdf="http://www.w3.org/1999/02/22-rdf-syntax-ns#"
   xmlns:svg="http://www.w3.org/2000/svg"
   xmlns="http://www.w3.org/2000/svg"
   id="svg4306"
   width="84"
   height="16"
   version="1.1"
   style="enable-background:new">
  <title
     id="title954">Midnight</title>
  <metadata
     id="metadata40">
    <rdf:RDF>
      <cc:Work
         rdf:about="">
        <dc:format>image/svg+xml</dc:format>
        <dc:type
           rdf:resource="http://purl.org/dc/dcmitype/StillImage" />
        <dc:title>Midnight</dc:title>
        <dc:date>2018</dc:date>
        <dc:creator>
          <cc:Agent>
            <dc:title>Rokin</dc:title>
          </cc:Agent>
        </dc:creator>
        <dc:source>https://github.com/Rokin05</dc:source>
      </cc:Work>
    </rdf:RDF>
  </metadata>
  <defs
     id="defs38" />
  <g
     id="active-center"
     style="enable-background:new"
     transform="matrix(0.9992677,0,0,1,-42.461736,-2.5)">
    <path
       style="opacity:0.01000001;fill:#202126;fill-opacity:1;fill-rule:evenodd;stroke:none;stroke-width:1.14295816;enable-background:new"
       d="m 50.502128,18.499973 c 4.418965,0 8.001308,-3.581731 8.001308,-8.000036 0,-4.4183055 -3.582343,-8.000036 -8.001308,-8.000036 -4.419096,0 -8.001449,3.5817305 -8.001449,8.000036 0,4.418305 3.582353,8.000036 8.001449,8.000036"
       id="path2-67-2-6" />
    <g
       transform="matrix(1.7003594,0,0,1.6999999,28.992711,26.699999)"
       style="opacity:1;enable-background:new"
       id="alldesk-3">
      <path
         style="fill:#6c6f7b;fill-opacity:1;fill-rule:evenodd;stroke:none;stroke-width:0.15407357;enable-background:new"
         d="m 11.5,-6 c 0.55314,0 1.001558,-0.448366 1.001558,-1.001403 0,-0.553053 -0.448418,-1.001389 -1.001558,-1.001389 -0.55316,0 -1.001578,0.448336 -1.001578,1.001389 C 10.498422,-6.448366 10.94684,-6 11.5,-6"
         id="path4-5-3-5-3-6" />
      <path
         style="fill:#6c6f7b;fill-opacity:1;fill-rule:evenodd;stroke:none;stroke-width:0.15407357;enable-background:new"
         d="m 14,-8 c 0.55314,0 1.001558,-0.448366 1.001558,-1.001403 0,-0.553053 -0.448418,-1.001389 -1.001558,-1.001389 -0.55316,0 -1.001578,0.448336 -1.001578,1.001389 C 12.998422,-8.448366 13.44684,-8 14,-8"
         id="path4-5-3-5-6-5-7" />
      <path
         style="fill:#6c6f7b;fill-opacity:1;fill-rule:evenodd;stroke:none;stroke-width:0.15407357;enable-background:new"
         d="m 11,-9 c 0.55314,0 1.001558,-0.448366 1.001558,-1.001403 0,-0.553053 -0.448418,-1.001389 -1.001558,-1.001389 -0.55316,0 -1.001578,0.448336 -1.001578,1.001389 C 9.998422,-9.448366 10.44684,-9 11,-9"
         id="path4-5-3-5-7-6-5" />
    </g>
  </g>
  <g
     id="hover-center"
     style="enable-background:new"
     transform="matrix(0.9992677,0,0,1,-25.975853,-2.5049494)">
    <path
       style="opacity:0.01000001;fill:#202126;fill-opacity:1;fill-rule:evenodd;stroke:none;stroke-width:1.14295816;enable-background:new"
       d="m 50.502128,18.499973 c 4.418965,0 8.001308,-3.581731 8.001308,-8.000036 0,-4.4183055 -3.582343,-8.000036 -8.001308,-8.000036 -4.419096,0 -8.001449,3.5817305 -8.001449,8.000036 0,4.418305 3.582353,8.000036 8.001449,8.000036"
       id="path2-67-2-6-2" />
    <g
       id="active-center-9-2"
       style="enable-background:new;opacity:0.7"
       transform="translate(-21.996863,-39.99505)">
      <g
         transform="matrix(1.7003594,0,0,1.6999999,51.008834,66.699999)"
         style="opacity:1;enable-background:new"
         id="alldesk-3-2-3-6">
        <path
           style="fill:#6c6f7b;fill-opacity:1;fill-rule:evenodd;stroke:none;stroke-width:0.15407357;enable-background:new"
           d="m 11.5,-6 c 0.55314,0 1.001558,-0.448366 1.001558,-1.001403 0,-0.553053 -0.448418,-1.001389 -1.001558,-1.001389 -0.55316,0 -1.001578,0.448336 -1.001578,1.001389 C 10.498422,-6.448366 10.94684,-6 11.5,-6"
           id="path4-5-3-5-3-6-7-6-1" />
        <path
           style="fill:#6c6f7b;fill-opacity:1;fill-rule:evenodd;stroke:none;stroke-width:0.15407357;enable-background:new"
           d="m 14,-8 c 0.55314,0 1.001558,-0.448366 1.001558,-1.001403 0,-0.553053 -0.448418,-1.001389 -1.001558,-1.001389 -0.55316,0 -1.001578,0.448336 -1.001578,1.001389 C 12.998422,-8.448366 13.44684,-8 14,-8"
           id="path4-5-3-5-6-5-7-0-0-8" />
        <path
           style="fill:#6c6f7b;fill-opacity:1;fill-rule:evenodd;stroke:none;stroke-width:0.15407357;enable-background:new"
           d="m 11,-9 c 0.55314,0 1.001558,-0.448366 1.001558,-1.001403 0,-0.553053 -0.448418,-1.001389 -1.001558,-1.001389 -0.55316,0 -1.001578,0.448336 -1.001578,1.001389 C 9.998422,-9.448366 10.44684,-9 11,-9"
           id="path4-5-3-5-7-6-5-9-6-7" />
      </g>
    </g>
  </g>
  <g
     id="pressed-center"
     style="enable-background:new"
     transform="matrix(0.9992677,0,0,1,-9.4758529,-2.5049494)">
    <path
       style="opacity:0.01000001;fill:#202126;fill-opacity:1;fill-rule:evenodd;stroke:none;stroke-width:1.14295816;enable-background:new"
       d="m 50.502128,18.499973 c 4.418965,0 8.001308,-3.581731 8.001308,-8.000036 0,-4.4183055 -3.582343,-8.000036 -8.001308,-8.000036 -4.419096,0 -8.001449,3.5817305 -8.001449,8.000036 0,4.418305 3.582353,8.000036 8.001449,8.000036"
       id="path2-67-2-6-27" />
    <g
       id="active-center-9-9"
       style="enable-background:new;opacity:0.7"
       transform="translate(-21.98525,-39.99505)">
      <g
         transform="matrix(1.7003594,0,0,1.6999999,51.008834,66.699999)"
         style="opacity:1;enable-background:new"
         id="alldesk-3-2-3-2">
        <path
           style="fill:#6c6f7b;fill-opacity:1;fill-rule:evenodd;stroke:none;stroke-width:0.15407357;enable-background:new"
           d="m 11.5,-6 c 0.55314,0 1.001558,-0.448366 1.001558,-1.001403 0,-0.553053 -0.448418,-1.001389 -1.001558,-1.001389 -0.55316,0 -1.001578,0.448336 -1.001578,1.001389 C 10.498422,-6.448366 10.94684,-6 11.5,-6"
           id="path4-5-3-5-3-6-7-6-0" />
        <path
           style="fill:#6c6f7b;fill-opacity:1;fill-rule:evenodd;stroke:none;stroke-width:0.15407357;enable-background:new"
           d="m 14,-8 c 0.55314,0 1.001558,-0.448366 1.001558,-1.001403 0,-0.553053 -0.448418,-1.001389 -1.001558,-1.001389 -0.55316,0 -1.001578,0.448336 -1.001578,1.001389 C 12.998422,-8.448366 13.44684,-8 14,-8"
           id="path4-5-3-5-6-5-7-0-0-2" />
        <path
           style="fill:#6c6f7b;fill-opacity:1;fill-rule:evenodd;stroke:none;stroke-width:0.15407357;enable-background:new"
           d="m 11,-9 c 0.55314,0 1.001558,-0.448366 1.001558,-1.001403 0,-0.553053 -0.448418,-1.001389 -1.001558,-1.001389 -0.55316,0 -1.001578,0.448336 -1.001578,1.001389 C 9.998422,-9.448366 10.44684,-9 11,-9"
           id="path4-5-3-5-7-6-5-9-6-3" />
      </g>
    </g>
  </g>
  <g
     id="inactive-center"
     style="enable-background:new"
     transform="matrix(0.9992677,0,0,1,7.0241471,-2.5049494)">
    <path
       style="opacity:0.01000001;fill:#202126;fill-opacity:1;fill-rule:evenodd;stroke:none;stroke-width:1.14295816;enable-background:new"
       d="m 50.502128,18.499973 c 4.418965,0 8.001308,-3.581731 8.001308,-8.000036 0,-4.4183055 -3.582343,-8.000036 -8.001308,-8.000036 -4.419096,0 -8.001449,3.5817305 -8.001449,8.000036 0,4.418305 3.582353,8.000036 8.001449,8.000036"
       id="path2-67-2-6-3" />
    <g
       id="active-center-9-7"
       style="enable-background:new;opacity:0.5"
       transform="translate(-21.98525,-39.99505)">
      <g
         transform="matrix(1.7003594,0,0,1.6999999,51.008834,66.699999)"
         style="opacity:1;enable-background:new"
         id="alldesk-3-2-3-5">
        <path
           style="fill:#6c6f7b;fill-opacity:1;fill-rule:evenodd;stroke:none;stroke-width:0.15407357;enable-background:new"
           d="m 11.5,-6 c 0.55314,0 1.001558,-0.448366 1.001558,-1.001403 0,-0.553053 -0.448418,-1.001389 -1.001558,-1.001389 -0.55316,0 -1.001578,0.448336 -1.001578,1.001389 C 10.498422,-6.448366 10.94684,-6 11.5,-6"
           id="path4-5-3-5-3-6-7-6-9" />
        <path
           style="fill:#6c6f7b;fill-opacity:1;fill-rule:evenodd;stroke:none;stroke-width:0.15407357;enable-background:new"
           d="m 14,-8 c 0.55314,0 1.001558,-0.448366 1.001558,-1.001403 0,-0.553053 -0.448418,-1.001389 -1.001558,-1.001389 -0.55316,0 -1.001578,0.448336 -1.001578,1.001389 C 12.998422,-8.448366 13.44684,-8 14,-8"
           id="path4-5-3-5-6-5-7-0-0-22" />
        <path
           style="fill:#6c6f7b;fill-opacity:1;fill-rule:evenodd;stroke:none;stroke-width:0.15407357;enable-background:new"
           d="m 11,-9 c 0.55314,0 1.001558,-0.448366 1.001558,-1.001403 0,-0.553053 -0.448418,-1.001389 -1.001558,-1.001389 -0.55316,0 -1.001578,0.448336 -1.001578,1.001389 C 9.998422,-9.448366 10.44684,-9 11,-9"
           id="path4-5-3-5-7-6-5-9-6-8" />
      </g>
    </g>
  </g>
  <g
     id="deactivated-center"
     style="enable-background:new"
     transform="matrix(0.9992677,0,0,1,23.534081,-2.4950109)">
    <path
       style="opacity:0.01000001;fill:#202126;fill-opacity:1;fill-rule:evenodd;stroke:none;stroke-width:1.14295816;enable-background:new"
       d="m 50.502128,18.499973 c 4.418965,0 8.001308,-3.581731 8.001308,-8.000036 0,-4.4183055 -3.582343,-8.000036 -8.001308,-8.000036 -4.419096,0 -8.001449,3.5817305 -8.001449,8.000036 0,4.418305 3.582353,8.000036 8.001449,8.000036"
       id="path2-67-2-6-6" />
    <g
       id="active-center-9-97"
       style="enable-background:new;opacity:0.5"
       transform="translate(-22.017304,-40.004989)">
      <g
         transform="matrix(1.7003594,0,0,1.6999999,51.008834,66.699999)"
         style="opacity:1;enable-background:new"
         id="alldesk-3-2-3-3">
        <path
           style="fill:#6c6f7b;fill-opacity:1;fill-rule:evenodd;stroke:none;stroke-width:0.15407357;enable-background:new"
           d="m 11.5,-6 c 0.55314,0 1.001558,-0.448366 1.001558,-1.001403 0,-0.553053 -0.448418,-1.001389 -1.001558,-1.001389 -0.55316,0 -1.001578,0.448336 -1.001578,1.001389 C 10.498422,-6.448366 10.94684,-6 11.5,-6"
           id="path4-5-3-5-3-6-7-6-6" />
        <path
           style="fill:#6c6f7b;fill-opacity:1;fill-rule:evenodd;stroke:none;stroke-width:0.15407357;enable-background:new"
           d="m 14,-8 c 0.55314,0 1.001558,-0.448366 1.001558,-1.001403 0,-0.553053 -0.448418,-1.001389 -1.001558,-1.001389 -0.55316,0 -1.001578,0.448336 -1.001578,1.001389 C 12.998422,-8.448366 13.44684,-8 14,-8"
           id="path4-5-3-5-6-5-7-0-0-1" />
        <path
           style="fill:#6c6f7b;fill-opacity:1;fill-rule:evenodd;stroke:none;stroke-width:0.15407357;enable-background:new"
           d="m 11,-9 c 0.55314,0 1.001558,-0.448366 1.001558,-1.001403 0,-0.553053 -0.448418,-1.001389 -1.001558,-1.001389 -0.55316,0 -1.001578,0.448336 -1.001578,1.001389 C 9.998422,-9.448366 10.44684,-9 11,-9"
           id="path4-5-3-5-7-6-5-9-6-2" />
      </g>
    </g>
  </g>
</svg>
