<?xml version="1.0" encoding="UTF-8" standalone="no"?>
<svg
   xmlns:dc="http://purl.org/dc/elements/1.1/"
   xmlns:cc="http://creativecommons.org/ns#"
   xmlns:rdf="http://www.w3.org/1999/02/22-rdf-syntax-ns#"
   xmlns:svg="http://www.w3.org/2000/svg"
   xmlns="http://www.w3.org/2000/svg"
   id="svg4306"
   width="84"
   height="16"
   version="1.1"
   style="enable-background:new">
  <title
     id="title954">Midnight</title>
  <metadata
     id="metadata40">
    <rdf:RDF>
      <cc:Work
         rdf:about="">
        <dc:format>image/svg+xml</dc:format>
        <dc:type
           rdf:resource="http://purl.org/dc/dcmitype/StillImage" />
        <dc:title>Midnight</dc:title>
        <dc:date>2018</dc:date>
        <dc:creator>
          <cc:Agent>
            <dc:title>Rokin</dc:title>
          </cc:Agent>
        </dc:creator>
        <dc:source>https://github.com/Rokin05</dc:source>
      </cc:Work>
    </rdf:RDF>
  </metadata>
  <defs
     id="defs38" />
  <g
     id="active-center"
     style="enable-background:new"
     transform="matrix(0.9992677,0,0,1,-42.461736,-2.5)">
    <path
       style="opacity:0.01000001;fill:#202126;fill-opacity:1;fill-rule:evenodd;stroke:none;stroke-width:1.14295816;enable-background:new"
       d="m 50.502128,18.499973 c 4.418965,0 8.001308,-3.581731 8.001308,-8.000036 0,-4.4183055 -3.582343,-8.000036 -8.001308,-8.000036 -4.419096,0 -8.001449,3.5817305 -8.001449,8.000036 0,4.418305 3.582353,8.000036 8.001449,8.000036"
       id="path2-67-2-6" />
    <path
       id="path4167-3"
       d="M 50.248533,11.399998 48.121977,13.949999 45.99542,16.5 h 4.253113 4.253115 L 52.37509,13.949999 Z"
       style="opacity:1;fill:#6c6f7b;fill-opacity:1;fill-rule:evenodd;stroke:none;stroke-width:4.90353107;stroke-linecap:butt;stroke-linejoin:round;stroke-miterlimit:4;stroke-dasharray:none;stroke-opacity:1;enable-background:new" />
  </g>
  <g
     id="hover-center"
     style="enable-background:new"
     transform="matrix(0.9992677,0,0,1,-25.975853,-2.5049494)">
    <path
       style="opacity:0.01000001;fill:#202126;fill-opacity:1;fill-rule:evenodd;stroke:none;stroke-width:1.14295816;enable-background:new"
       d="m 50.502128,18.499973 c 4.418965,0 8.001308,-3.581731 8.001308,-8.000036 0,-4.4183055 -3.582343,-8.000036 -8.001308,-8.000036 -4.419096,0 -8.001449,3.5817305 -8.001449,8.000036 0,4.418305 3.582353,8.000036 8.001449,8.000036"
       id="path2-67-2-6-2" />
    <path
       id="path4167-6"
       d="m 50.26266,11.404946 -2.126557,2.550001 -2.126557,2.550002 h 4.253114 4.253115 l -2.126558,-2.550002 z"
       style="opacity:0.7;fill:#6c6f7b;fill-opacity:1;fill-rule:evenodd;stroke:none;stroke-width:4.90353203;stroke-linecap:butt;stroke-linejoin:round;stroke-miterlimit:4;stroke-dasharray:none;stroke-opacity:1;enable-background:new" />
  </g>
  <g
     id="pressed-center"
     style="enable-background:new"
     transform="matrix(0.9992677,0,0,1,-9.4758529,-2.5049494)">
    <path
       style="opacity:0.01000001;fill:#202126;fill-opacity:1;fill-rule:evenodd;stroke:none;stroke-width:1.14295816;enable-background:new"
       d="m 50.502128,18.499973 c 4.418965,0 8.001308,-3.581731 8.001308,-8.000036 0,-4.4183055 -3.582343,-8.000036 -8.001308,-8.000036 -4.419096,0 -8.001449,3.5817305 -8.001449,8.000036 0,4.418305 3.582353,8.000036 8.001449,8.000036"
       id="path2-67-2-6-27" />
    <path
       id="path4167-7"
       d="M 50.264613,11.404949 48.138057,13.95495 46.0115,16.504951 h 4.253113 4.253115 L 52.39117,13.95495 Z"
       style="opacity:0.7;fill:#6c6f7b;fill-opacity:1;fill-rule:evenodd;stroke:none;stroke-width:4.9035306;stroke-linecap:butt;stroke-linejoin:round;stroke-miterlimit:4;stroke-dasharray:none;stroke-opacity:1;enable-background:new" />
  </g>
  <g
     id="inactive-center"
     style="enable-background:new"
     transform="matrix(0.9992677,0,0,1,7.0241471,-2.5049494)">
    <path
       style="opacity:0.01000001;fill:#202126;fill-opacity:1;fill-rule:evenodd;stroke:none;stroke-width:1.14295816;enable-background:new"
       d="m 50.502128,18.499973 c 4.418965,0 8.001308,-3.581731 8.001308,-8.000036 0,-4.4183055 -3.582343,-8.000036 -8.001308,-8.000036 -4.419096,0 -8.001449,3.5817305 -8.001449,8.000036 0,4.418305 3.582353,8.000036 8.001449,8.000036"
       id="path2-67-2-6-3" />
    <path
       id="path4167-5"
       d="m 50.26266,11.404946 -2.126557,2.550001 -2.126557,2.550002 h 4.253114 4.253115 l -2.126558,-2.550002 z"
       style="opacity:0.5;fill:#6c6f7b;fill-opacity:1;fill-rule:evenodd;stroke:none;stroke-width:4.90353155;stroke-linecap:butt;stroke-linejoin:round;stroke-miterlimit:4;stroke-dasharray:none;stroke-opacity:1;enable-background:new" />
  </g>
  <g
     id="deactivated-center"
     style="enable-background:new"
     transform="matrix(0.9992677,0,0,1,23.534081,-2.4950109)">
    <path
       style="opacity:0.01000001;fill:#202126;fill-opacity:1;fill-rule:evenodd;stroke:none;stroke-width:1.14295816;enable-background:new"
       d="m 50.502128,18.499973 c 4.418965,0 8.001308,-3.581731 8.001308,-8.000036 0,-4.4183055 -3.582343,-8.000036 -8.001308,-8.000036 -4.419096,0 -8.001449,3.5817305 -8.001449,8.000036 0,4.418305 3.582353,8.000036 8.001449,8.000036"
       id="path2-67-2-6-6" />
    <path
       id="path4167-35"
       d="m 50.252719,11.395009 -2.126557,2.550001 -2.126557,2.550001 h 4.253114 4.253115 L 52.379276,13.94501 Z"
       style="opacity:0.5;fill:#6c6f7b;fill-opacity:1;fill-rule:evenodd;stroke:none;stroke-width:4.90353107;stroke-linecap:butt;stroke-linejoin:round;stroke-miterlimit:4;stroke-dasharray:none;stroke-opacity:1;enable-background:new" />
  </g>
  <path
     id="path4167"
     d="m 15.622021,91.017689 -2.499999,3.000001 -2.5,3.000002 h 4.999999 5 l -2.5,-3.000002 z"
     style="opacity:1;fill:#6c6f7b;fill-opacity:1;fill-rule:evenodd;stroke:none;stroke-width:5.76674747;stroke-linecap:butt;stroke-linejoin:round;stroke-miterlimit:4;stroke-dasharray:none;stroke-opacity:1;enable-background:new" />
</svg>
