<?xml version="1.0" encoding="UTF-8" standalone="no"?>
<svg
   xmlns:dc="http://purl.org/dc/elements/1.1/"
   xmlns:cc="http://creativecommons.org/ns#"
   xmlns:rdf="http://www.w3.org/1999/02/22-rdf-syntax-ns#"
   xmlns:svg="http://www.w3.org/2000/svg"
   xmlns="http://www.w3.org/2000/svg"
   id="svg4306"
   width="84"
   height="16"
   version="1.1"
   style="enable-background:new">
  <title
     id="title954">Midnight</title>
  <metadata
     id="metadata40">
    <rdf:RDF>
      <cc:Work
         rdf:about="">
        <dc:format>image/svg+xml</dc:format>
        <dc:type
           rdf:resource="http://purl.org/dc/dcmitype/StillImage" />
        <dc:title>Midnight</dc:title>
        <dc:date>2018</dc:date>
        <dc:creator>
          <cc:Agent>
            <dc:title>Rokin</dc:title>
          </cc:Agent>
        </dc:creator>
        <dc:source>https://github.com/Rokin05</dc:source>
      </cc:Work>
    </rdf:RDF>
  </metadata>
  <defs
     id="defs38" />
  <g
     id="active-center"
     style="enable-background:new"
     transform="matrix(0.9992677,0,0,1,-42.461736,-2.5)">
    <path
       style="opacity:0.01000001;fill:#202126;fill-opacity:1;fill-rule:evenodd;stroke:none;stroke-width:1.14295816;enable-background:new"
       d="m 50.502128,18.499973 c 4.418965,0 8.001308,-3.581731 8.001308,-8.000036 0,-4.4183055 -3.582343,-8.000036 -8.001308,-8.000036 -4.419096,0 -8.001449,3.5817305 -8.001449,8.000036 0,4.418305 3.582353,8.000036 8.001449,8.000036"
       id="path2-67-2-6" />
    <path
       id="path6-6-3"
       d="m 47.997539,8 6.504109,6.496542 V 9.416635 C 54.501648,8.8280234 53.672667,8 53.083374,8 Z m -2.005526,2.003263 v 5.079908 c 0,0.588611 0.82898,1.416634 1.418272,1.416634 h 5.085836 z"
       style="opacity:1;fill:#6c6f7b;fill-opacity:1;stroke:none;stroke-width:2.83490658;stroke-linecap:round;stroke-linejoin:round;stroke-miterlimit:4;stroke-dasharray:none;stroke-opacity:1;enable-background:new" />
  </g>
  <g
     id="hover-center"
     style="enable-background:new"
     transform="matrix(0.9992677,0,0,1,-25.975853,-2.5049494)">
    <path
       style="opacity:0.01000001;fill:#202126;fill-opacity:1;fill-rule:evenodd;stroke:none;stroke-width:1.14295816;enable-background:new"
       d="m 50.502128,18.499973 c 4.418965,0 8.001308,-3.581731 8.001308,-8.000036 0,-4.4183055 -3.582343,-8.000036 -8.001308,-8.000036 -4.419096,0 -8.001449,3.5817305 -8.001449,8.000036 0,4.418305 3.582353,8.000036 8.001449,8.000036"
       id="path2-67-2-6-2" />
    <path
       id="path6-6-6"
       d="m 48.017196,8.00905 6.501984,6.493557 V 9.425034 c 0,-0.588341 -0.82871,-1.415984 -1.417809,-1.415984 z m -2.004872,2.002343 v 5.077573 c 0,0.588341 0.82871,1.415983 1.417809,1.415983 h 5.084176 z"
       style="opacity:0.7;fill:#6c6f7b;fill-opacity:1;stroke:none;stroke-width:2.83379245;stroke-linecap:round;stroke-linejoin:round;stroke-miterlimit:4;stroke-dasharray:none;stroke-opacity:1;enable-background:new" />
  </g>
  <g
     id="pressed-center"
     style="enable-background:new"
     transform="matrix(0.9992677,0,0,1,-9.4758529,-2.5049494)">
    <path
       style="opacity:0.01000001;fill:#202126;fill-opacity:1;fill-rule:evenodd;stroke:none;stroke-width:1.14295816;enable-background:new"
       d="m 50.502128,18.499973 c 4.418965,0 8.001308,-3.581731 8.001308,-8.000036 0,-4.4183055 -3.582343,-8.000036 -8.001308,-8.000036 -4.419096,0 -8.001449,3.5817305 -8.001449,8.000036 0,4.418305 3.582353,8.000036 8.001449,8.000036"
       id="path2-67-2-6-27" />
    <path
       id="path6-6-7"
       d="m 48.011011,8.004949 6.501984,6.493557 V 9.420933 c 0,-0.588341 -0.82871,-1.415984 -1.417809,-1.415984 z m -2.004872,2.002343 v 5.077573 c 0,0.588341 0.82871,1.415983 1.41781,1.415983 h 5.084175 z"
       style="opacity:0.7;fill:#6c6f7b;fill-opacity:1;stroke:none;stroke-width:2.83379245;stroke-linecap:round;stroke-linejoin:round;stroke-miterlimit:4;stroke-dasharray:none;stroke-opacity:1;enable-background:new" />
  </g>
  <g
     id="inactive-center"
     style="enable-background:new"
     transform="matrix(0.9992677,0,0,1,7.0241471,-2.5049494)">
    <path
       style="opacity:0.01000001;fill:#202126;fill-opacity:1;fill-rule:evenodd;stroke:none;stroke-width:1.14295816;enable-background:new"
       d="m 50.502128,18.499973 c 4.418965,0 8.001308,-3.581731 8.001308,-8.000036 0,-4.4183055 -3.582343,-8.000036 -8.001308,-8.000036 -4.419096,0 -8.001449,3.5817305 -8.001449,8.000036 0,4.418305 3.582353,8.000036 8.001449,8.000036"
       id="path2-67-2-6-3" />
    <path
       id="path6-6-5"
       d="m 48.014417,8.002607 6.501985,6.493556 V 9.418591 c 0,-0.588341 -0.82871,-1.415984 -1.41781,-1.415984 z m -2.004871,2.002342 v 5.077573 c 0,0.588341 0.828709,1.415983 1.417809,1.415983 h 5.084176 z"
       style="opacity:0.5;fill:#6c6f7b;fill-opacity:1;stroke:none;stroke-width:2.83379245;stroke-linecap:round;stroke-linejoin:round;stroke-miterlimit:4;stroke-dasharray:none;stroke-opacity:1;enable-background:new" />
  </g>
  <g
     id="deactivated-center"
     style="enable-background:new"
     transform="matrix(0.9992677,0,0,1,23.534081,-2.4950109)">
    <path
       style="opacity:0.01000001;fill:#202126;fill-opacity:1;fill-rule:evenodd;stroke:none;stroke-width:1.14295816;enable-background:new"
       d="m 50.502128,18.499973 c 4.418965,0 8.001308,-3.581731 8.001308,-8.000036 0,-4.4183055 -3.582343,-8.000036 -8.001308,-8.000036 -4.419096,0 -8.001449,3.5817305 -8.001449,8.000036 0,4.418305 3.582353,8.000036 8.001449,8.000036"
       id="path2-67-2-6-6" />
    <path
       id="path6-6-35"
       d="m 48.007255,7.9991116 6.501984,6.4935574 V 9.415096 c 0,-0.588341 -0.828709,-1.4159844 -1.417809,-1.4159844 z m -2.004872,2.0023434 v 5.077573 c 0,0.588341 0.82871,1.415983 1.41781,1.415983 h 5.084175 z"
       style="opacity:0.5;fill:#6c6f7b;fill-opacity:1;stroke:none;stroke-width:2.83379245;stroke-linecap:round;stroke-linejoin:round;stroke-miterlimit:4;stroke-dasharray:none;stroke-opacity:1;enable-background:new" />
  </g>
</svg>
