<?xml version="1.0" encoding="UTF-8" standalone="no"?>
<svg
   xmlns:dc="http://purl.org/dc/elements/1.1/"
   xmlns:cc="http://creativecommons.org/ns#"
   xmlns:rdf="http://www.w3.org/1999/02/22-rdf-syntax-ns#"
   xmlns:svg="http://www.w3.org/2000/svg"
   xmlns="http://www.w3.org/2000/svg"
   id="svg4306"
   width="90"
   height="18"
   version="1.1"
   style="enable-background:new">
  <title
     id="title836">Midnight</title>
  <metadata
     id="metadata40">
    <rdf:RDF>
      <cc:Work
         rdf:about="">
        <dc:format>image/svg+xml</dc:format>
        <dc:type
           rdf:resource="http://purl.org/dc/dcmitype/StillImage" />
        <dc:title>Midnight</dc:title>
        <dc:date>2018</dc:date>
        <dc:creator>
          <cc:Agent>
            <dc:title>Rokin</dc:title>
          </cc:Agent>
        </dc:creator>
        <dc:source>https://github.com/Rokin05</dc:source>
      </cc:Work>
    </rdf:RDF>
  </metadata>
  <defs
     id="defs38" />
  <g
     transform="translate(34.994484,1.9934871)"
     id="active-center"
     style="enable-background:new">
    <rect
       y="-2"
       x="-35"
       height="18"
       width="17.999998"
       id="bg"
       style="opacity:0.03999999;fill:#202126;fill-opacity:1;fill-rule:nonzero;stroke:none;stroke-width:0.25805974;stroke-miterlimit:4;stroke-dasharray:none;stroke-opacity:0.67843137" />
    <path
       id="ribon"
       d="m -21.106405,-1.8934872 -2.55e-4,13.3385282 c 0,0 -0.0688,3.411025 -5.475956,3.450718 -5.407163,-0.03969 -5.308268,-3.423391 -5.308268,-3.423391 l -0.0036,-13.3658551 z"
       style="fill:#0064c8;fill-opacity:1;stroke:#000000;stroke-width:0.2079328;stroke-linecap:butt;stroke-linejoin:miter;stroke-miterlimit:4;stroke-dasharray:none;stroke-opacity:1" />
  </g>
  <g
     transform="translate(88.994484,1.9934871)"
     id="inactive-center"
     style="opacity:0.7;enable-background:new">
    <rect
       y="-2"
       x="-35"
       height="18"
       width="17.999998"
       id="bg-0"
       style="opacity:0.03999999;fill:#202126;fill-opacity:1;fill-rule:nonzero;stroke:none;stroke-width:0.25805974;stroke-miterlimit:4;stroke-dasharray:none;stroke-opacity:0.67843137" />
    <path
       id="ribon-9"
       d="m -21.085923,-1.9139671 -2.56e-4,8.5683653 c 0,0 -0.06906,2.1911645 -5.496749,2.2166623 -5.427695,-0.025496 -5.328425,-2.199108 -5.328425,-2.199108 l -0.0036,-8.5859195 z"
       style="fill:#0064c8;fill-opacity:1;stroke:#000000;stroke-width:0.166971;stroke-linecap:butt;stroke-linejoin:miter;stroke-miterlimit:4;stroke-dasharray:none;stroke-opacity:1" />
  </g>
  <g
     transform="translate(106.99448,1.9934871)"
     id="deactivated-center"
     style="enable-background:new">
    <rect
       y="-2"
       x="-35"
       height="18"
       width="17.999998"
       id="bg-6"
       style="opacity:0.03999999;fill:#202126;fill-opacity:1;fill-rule:nonzero;stroke:none;stroke-width:0.25805974;stroke-miterlimit:4;stroke-dasharray:none;stroke-opacity:0.67843137" />
    <path
       id="ribon-0"
       d="m -21.086097,-1.9137924 -2.56e-4,8.6044905 c 0,0 -0.06906,2.2004026 -5.496572,2.2260079 -5.427521,-0.025603 -5.328254,-2.2083797 -5.328254,-2.2083797 l -0.0036,-8.6221186 z"
       style="opacity:0.5;fill:#666666;fill-opacity:1;stroke:#000000;stroke-width:0.16731991;stroke-linecap:butt;stroke-linejoin:miter;stroke-miterlimit:4;stroke-dasharray:none;stroke-opacity:1" />
  </g>
  <g
     id="hover-center">
    <rect
       y="-0.0065128999"
       x="17.994484"
       height="18"
       width="17.999998"
       id="bg-7"
       style="opacity:0.03999999;fill:#202126;fill-opacity:1;fill-rule:nonzero;stroke:none;stroke-width:0.25805974;stroke-miterlimit:4;stroke-dasharray:none;stroke-opacity:0.67843137" />
    <path
       id="ribon-5"
       d="M 31.885075,0.1030032 31.88482,14.231228 c 0,0 -0.06876,3.612972 -5.472906,3.655015 -5.404152,-0.04204 -5.305312,-3.62607 -5.305312,-3.62607 l -0.0036,-14.1571697 z"
       style="fill:#0064c8;fill-opacity:1;stroke:#000000;stroke-width:0.21393995;stroke-linecap:butt;stroke-linejoin:miter;stroke-miterlimit:4;stroke-dasharray:none;stroke-opacity:1" />
    <path
       style="opacity:0.4;fill:#000000;fill-opacity:1;fill-rule:evenodd;stroke:none;stroke-width:4.17840481;stroke-linecap:butt;stroke-linejoin:round;stroke-miterlimit:4;stroke-dasharray:none;stroke-opacity:1;enable-background:new"
       d="M 26.500001,12.5 28.25,10.25 30,8 H 26.500001 23 l 1.750001,2.25 z"
       id="path4167" />
  </g>
  <g
     id="pressed-center"
     style="enable-background:new"
     transform="translate(18.000001)">
    <rect
       y="-0.0065128999"
       x="17.994484"
       height="18"
       width="17.999998"
       id="bg-7-6"
       style="opacity:0.03999999;fill:#202126;fill-opacity:1;fill-rule:nonzero;stroke:none;stroke-width:0.25805974;stroke-miterlimit:4;stroke-dasharray:none;stroke-opacity:0.67843137" />
    <path
       id="ribon-5-7"
       d="M 31.885075,0.1030032 31.88482,14.231228 c 0,0 -0.06876,3.612972 -5.472906,3.655015 -5.404152,-0.04204 -5.305312,-3.62607 -5.305312,-3.62607 l -0.0036,-14.1571697 z"
       style="fill:#0064c8;fill-opacity:1;stroke:#000000;stroke-width:0.21393995;stroke-linecap:butt;stroke-linejoin:miter;stroke-miterlimit:4;stroke-dasharray:none;stroke-opacity:1" />
    <path
       style="opacity:0.5;fill:#000000;fill-opacity:1;fill-rule:evenodd;stroke:none;stroke-width:4.17840481;stroke-linecap:butt;stroke-linejoin:round;stroke-miterlimit:4;stroke-dasharray:none;stroke-opacity:1;enable-background:new"
       d="m 26.499999,12.5 1.749999,-2.25 1.75,-2.25 h -3.499999 -3.500001 l 1.750001,2.25 z"
       id="path4167-5" />
  </g>
</svg>
