<?xml version="1.0" encoding="UTF-8" standalone="no"?>
<svg
   xmlns:dc="http://purl.org/dc/elements/1.1/"
   xmlns:cc="http://creativecommons.org/ns#"
   xmlns:rdf="http://www.w3.org/1999/02/22-rdf-syntax-ns#"
   xmlns:svg="http://www.w3.org/2000/svg"
   xmlns="http://www.w3.org/2000/svg"
   id="svg4306"
   width="90"
   height="18"
   version="1.1"
   style="enable-background:new">
  <title
     id="title836">Midnight</title>
  <metadata
     id="metadata40">
    <rdf:RDF>
      <cc:Work
         rdf:about="">
        <dc:format>image/svg+xml</dc:format>
        <dc:type
           rdf:resource="http://purl.org/dc/dcmitype/StillImage" />
        <dc:title>Midnight</dc:title>
        <dc:date>2018</dc:date>
        <dc:creator>
          <cc:Agent>
            <dc:title>Rokin</dc:title>
          </cc:Agent>
        </dc:creator>
        <dc:source>https://github.com/Rokin05</dc:source>
      </cc:Work>
    </rdf:RDF>
  </metadata>
  <defs
     id="defs38" />
  <g
     transform="translate(34.994484,1.9934871)"
     id="active-center"
     style="enable-background:new">
    <rect
       y="-2"
       x="-35"
       height="18"
       width="17.999998"
       id="bg"
       style="opacity:0.03999999;fill:#202126;fill-opacity:1;fill-rule:nonzero;stroke:none;stroke-width:0.25805974;stroke-miterlimit:4;stroke-dasharray:none;stroke-opacity:0.67843137" />
    <path
       id="ribon"
       d="m -21.106405,-1.8934872 -2.55e-4,13.3385282 c 0,0 -0.0688,3.411025 -5.475956,3.450718 -5.407163,-0.03969 -5.308268,-3.423391 -5.308268,-3.423391 l -0.0036,-13.3658551 z"
       style="fill:#39ea49;fill-opacity:1;stroke:#000000;stroke-width:0.2079328;stroke-linecap:butt;stroke-linejoin:miter;stroke-miterlimit:4;stroke-dasharray:none;stroke-opacity:1" />
  </g>
  <g
     id="hover-center"
     style="enable-background:new"
     transform="translate(52.994484,1.9934871)">
    <rect
       y="-2"
       x="-35"
       height="18"
       width="17.999998"
       id="bg-7"
       style="opacity:0.03999999;fill:#202126;fill-opacity:1;fill-rule:nonzero;stroke:none;stroke-width:0.25805974;stroke-miterlimit:4;stroke-dasharray:none;stroke-opacity:0.67843137" />
    <path
       id="ribon-5"
       d="m -21.109409,-1.8904839 -2.55e-4,14.1282249 c 0,0 -0.06876,3.612972 -5.472906,3.655015 -5.404152,-0.04204 -5.305312,-3.62607 -5.305312,-3.62607 l -0.0036,-14.1571698 z"
       style="fill:#39ea49;fill-opacity:1;stroke:#000000;stroke-width:0.21393995;stroke-linecap:butt;stroke-linejoin:miter;stroke-miterlimit:4;stroke-dasharray:none;stroke-opacity:1" />
    <path
       id="path6-6-3"
       d="m -28.080421,4.0080378 4.585937,4.5858978 V 5.0080378 c 0,-0.4155 -0.5845,-1 -1,-1 z m -1.414063,1.4141001 v 3.5858978 c 0,0.4154999 0.5845,0.9999993 1,0.9999993 h 3.585938 z"
       style="opacity:0.4;fill:#000000;fill-opacity:1;stroke:none;stroke-width:2;stroke-linecap:round;stroke-linejoin:round;stroke-miterlimit:4;stroke-dasharray:none;stroke-opacity:1;enable-background:new" />
  </g>
  <g
     id="pressed-center"
     style="enable-background:new"
     transform="translate(70.994484,1.9934871)">
    <rect
       y="-2"
       x="-35"
       height="18"
       width="17.999998"
       id="bg-7-9"
       style="opacity:0.03999999;fill:#202126;fill-opacity:1;fill-rule:nonzero;stroke:none;stroke-width:0.25805974;stroke-miterlimit:4;stroke-dasharray:none;stroke-opacity:0.67843137" />
    <path
       id="ribon-5-1"
       d="m -21.109409,-1.8904839 -2.55e-4,14.1282249 c 0,0 -0.06876,3.612972 -5.472906,3.655015 -5.404152,-0.04204 -5.305312,-3.62607 -5.305312,-3.62607 l -0.0036,-14.1571698 z"
       style="fill:#39ea49;fill-opacity:1;stroke:#000000;stroke-width:0.21393995;stroke-linecap:butt;stroke-linejoin:miter;stroke-miterlimit:4;stroke-dasharray:none;stroke-opacity:1" />
    <path
       id="path6-6-3-6"
       d="m -28.094484,4.0065129 4.585937,4.5858978 V 5.0065129 c 0,-0.4155 -0.5845,-1 -1,-1 z m -1.414063,1.4141001 v 3.5858978 c 0,0.4154999 0.5845,0.9999992 1,0.9999992 h 3.585938 z"
       style="opacity:0.5;fill:#000000;fill-opacity:1;stroke:none;stroke-width:2;stroke-linecap:round;stroke-linejoin:round;stroke-miterlimit:4;stroke-dasharray:none;stroke-opacity:1;enable-background:new" />
  </g>
  <g
     transform="translate(88.994484,1.9934871)"
     id="inactive-center"
     style="opacity:0.7;enable-background:new">
    <rect
       y="-2"
       x="-35"
       height="18"
       width="17.999998"
       id="bg-0"
       style="opacity:0.03999999;fill:#202126;fill-opacity:1;fill-rule:nonzero;stroke:none;stroke-width:0.25805974;stroke-miterlimit:4;stroke-dasharray:none;stroke-opacity:0.67843137" />
    <path
       id="ribon-9"
       d="m -21.085923,-1.9139671 -2.56e-4,8.5683653 c 0,0 -0.06906,2.1911645 -5.496749,2.2166623 -5.427695,-0.025496 -5.328425,-2.199108 -5.328425,-2.199108 l -0.0036,-8.5859195 z"
       style="fill:#39ea49;fill-opacity:1;stroke:#000000;stroke-width:0.166971;stroke-linecap:butt;stroke-linejoin:miter;stroke-miterlimit:4;stroke-dasharray:none;stroke-opacity:1" />
  </g>
  <g
     transform="translate(106.99448,1.9934871)"
     id="deactivated-center"
     style="enable-background:new">
    <rect
       y="-2"
       x="-35"
       height="18"
       width="17.999998"
       id="bg-6"
       style="opacity:0.03999999;fill:#202126;fill-opacity:1;fill-rule:nonzero;stroke:none;stroke-width:0.25805974;stroke-miterlimit:4;stroke-dasharray:none;stroke-opacity:0.67843137" />
    <path
       id="ribon-0"
       d="m -21.086097,-1.9137924 -2.56e-4,8.6044905 c 0,0 -0.06906,2.2004026 -5.496572,2.2260079 -5.427521,-0.025603 -5.328254,-2.2083797 -5.328254,-2.2083797 l -0.0036,-8.6221186 z"
       style="opacity:0.5;fill:#666666;fill-opacity:1;stroke:#000000;stroke-width:0.16731991;stroke-linecap:butt;stroke-linejoin:miter;stroke-miterlimit:4;stroke-dasharray:none;stroke-opacity:1" />
  </g>
</svg>
